{"glyphs":{"0":{"ha":978,"x_min":0,"x_max":0,"o":"m 489 -14 b 47 472 222 -14 47 179 b 489 958 47 765 222 958 b 931 472 756 958 931 765 b 489 -14 931 179 756 -14 m 292 615 b 535 8 292 374 379 8 b 688 331 629 8 688 138 b 443 936 688 569 599 936 b 292 615 350 936 292 807 "},"1":{"ha":513,"x_min":0,"x_max":0,"o":"m 113 1 b 93 19 101 1 93 8 b 111 46 93 29 99 38 b 151 100 133 58 151 69 l 151 724 b 101 788 151 760 135 776 b 60 818 72 799 60 804 b 119 860 60 833 74 840 l 279 928 b 369 956 318 944 349 956 b 400 921 389 956 400 943 l 400 100 b 426 46 400 68 414 57 b 443 19 439 36 443 29 b 424 1 443 8 435 1 l 113 1 "},"2":{"ha":818,"x_min":0,"x_max":0,"o":"m 83 0 b 32 53 50 0 32 19 b 325 499 32 290 189 403 b 526 779 436 579 526 653 b 407 938 526 871 479 938 b 289 743 329 938 306 861 b 158 594 278 669 244 594 b 40 719 85 594 40 644 b 413 958 40 860 193 958 b 764 692 635 958 764 860 b 439 383 764 507 611 436 b 82 203 285 332 147 282 l 615 203 b 713 257 675 203 699 229 b 749 296 724 279 732 296 b 768 272 761 296 768 286 l 768 53 b 715 0 768 19 749 0 l 83 0 "},"3":{"ha":831,"x_min":0,"x_max":0,"o":"m 419 -14 b 28 204 181 -14 28 82 b 160 325 28 278 79 325 b 293 189 254 325 281 256 b 414 7 311 97 336 7 b 551 211 488 7 551 85 b 350 478 551 331 492 478 l 261 478 b 251 488 256 478 251 482 l 251 496 b 261 504 251 501 256 504 l 351 504 b 510 733 456 504 510 604 b 390 938 510 824 475 938 b 288 764 314 938 297 854 b 165 628 282 697 264 628 b 49 742 88 628 49 675 b 390 958 49 868 182 958 b 760 711 624 958 760 867 b 450 493 760 593 683 515 b 801 250 708 471 801 385 b 419 -14 801 82 660 -14 "},"4":{"ha":831,"x_min":0,"x_max":0,"o":"m 140 274 b 128 272 136 274 132 274 l 128 136 b 140 135 131 135 136 135 b 183 204 176 135 183 161 b 140 274 183 249 176 274 l 140 274 m 351 190 l 296 190 l 296 138 l 361 138 l 361 104 l 256 104 l 256 306 l 361 306 l 361 271 l 296 271 l 296 224 l 351 224 m 138 101 b 88 104 126 101 106 101 l 88 303 b 139 308 106 306 125 308 b 224 204 201 308 224 274 b 138 101 224 133 200 101 l 138 101 m 451 306 l 478 194 l 504 306 l 560 306 b 568 104 563 257 565 169 l 528 104 b 524 249 528 151 526 201 l 496 135 l 458 135 l 431 249 l 429 249 b 426 104 428 201 426 151 l 388 104 b 397 306 389 169 393 257 l 397 306 m 669 101 b 596 204 614 101 596 133 b 669 308 596 275 614 308 b 744 204 725 308 744 275 b 669 101 744 133 725 101 l 669 101 m 669 274 b 636 204 642 274 636 250 b 669 135 636 160 642 135 b 704 204 699 135 704 160 b 669 274 704 250 699 274 m 656 689 b 742 601 728 689 742 631 b 669 529 742 558 699 533 b 439 429 569 518 497 486 b 656 689 439 429 540 689 l 656 689 m 193 617 b 410 357 324 617 410 357 b 193 457 353 429 281 457 b 107 529 150 457 107 486 b 193 617 107 574 136 617 l 193 617 m 436 824 b 410 486 529 733 410 486 b 325 710 419 578 388 650 b 313 822 294 740 283 790 b 436 824 343 853 394 864 l 436 824 "},"5":{"ha":825,"x_min":0,"x_max":0,"o":"m 403 -14 b 32 204 189 -14 32 78 b 160 322 32 275 81 322 b 294 186 254 322 282 251 b 404 7 311 92 329 7 b 543 228 482 7 543 96 b 299 524 543 368 472 524 b 122 443 239 524 171 506 b 108 438 118 438 115 435 l 94 443 b 88 454 89 444 88 449 l 88 892 b 140 944 88 925 107 944 l 683 944 b 732 894 715 944 732 928 l 732 789 b 683 740 732 757 715 740 l 115 740 l 115 468 b 424 603 181 551 285 603 b 794 293 635 603 794 485 b 403 -14 794 121 663 -14 "},"6":{"ha":874,"x_min":0,"x_max":0,"o":"m 472 -14 b 47 465 214 -14 47 174 b 492 958 47 756 210 958 b 806 763 669 958 806 879 b 685 649 806 694 761 649 b 560 775 594 649 572 713 b 453 938 540 860 521 938 b 293 494 367 938 293 825 l 293 460 b 526 583 340 540 419 583 b 833 296 703 583 833 469 b 472 -14 833 108 686 -14 m 294 425 b 474 6 304 151 372 6 b 597 194 549 6 597 82 b 419 499 597 319 539 499 b 294 425 369 499 322 472 "},"7":{"ha":761,"x_min":0,"x_max":0,"o":"m 208 0 b 163 42 181 0 163 15 b 681 742 165 228 429 585 l 226 742 b 103 686 151 742 118 715 b 67 649 92 665 83 649 b 46 672 56 649 46 657 l 46 890 b 100 944 46 924 67 944 l 688 944 b 736 894 719 944 736 926 l 736 814 b 714 753 736 790 731 774 b 429 46 569 574 460 301 b 378 0 425 15 408 0 l 208 0 "},"8":{"ha":833,"x_min":0,"x_max":0,"o":"m 415 -14 b 28 228 182 -14 28 82 b 249 422 28 336 111 404 b 57 685 144 472 57 544 b 419 958 57 854 192 958 b 763 739 628 958 763 863 b 547 561 763 636 669 576 b 806 269 679 507 806 436 b 415 -14 806 94 663 -14 m 231 247 b 444 7 231 113 318 7 b 613 158 547 7 613 72 b 358 378 613 276 499 326 b 300 400 339 385 319 393 b 231 247 260 371 231 318 m 249 799 b 511 576 249 681 372 629 b 576 728 551 607 576 663 b 399 938 576 847 510 938 b 249 799 308 938 249 881 "},"9":{"ha":874,"x_min":0,"x_max":0,"o":"m 382 -14 b 68 182 204 -14 68 65 b 189 296 68 250 113 296 b 314 169 279 296 301 232 b 421 7 333 85 351 7 b 581 450 507 7 581 119 l 581 486 b 347 361 535 406 454 361 b 40 649 171 361 40 475 b 401 958 40 836 188 958 b 826 479 660 958 826 771 b 382 -14 826 189 664 -14 m 276 750 b 454 446 276 625 335 446 b 579 519 504 446 551 472 b 400 939 569 793 501 939 b 276 750 325 939 276 863 "}," ":{"ha":288,"x_min":0,"x_max":0,"o":""},"!":{"ha":831,"x_min":0,"x_max":0,"o":"m 140 274 b 128 272 136 274 132 274 l 128 136 b 140 135 131 135 136 135 b 183 204 176 135 183 161 b 140 274 183 249 176 274 l 140 274 m 351 190 l 296 190 l 296 138 l 361 138 l 361 104 l 256 104 l 256 306 l 361 306 l 361 271 l 296 271 l 296 224 l 351 224 m 138 101 b 88 104 126 101 106 101 l 88 303 b 139 308 106 306 125 308 b 224 204 201 308 224 274 b 138 101 224 133 200 101 l 138 101 m 451 306 l 478 194 l 504 306 l 560 306 b 568 104 563 257 565 169 l 528 104 b 524 249 528 151 526 201 l 496 135 l 458 135 l 431 249 l 429 249 b 426 104 428 201 426 151 l 388 104 b 397 306 389 169 393 257 l 397 306 m 669 101 b 596 204 614 101 596 133 b 669 308 596 275 614 308 b 744 204 725 308 744 275 b 669 101 744 133 725 101 l 669 101 m 669 274 b 636 204 642 274 636 250 b 669 135 636 160 642 135 b 704 204 699 135 704 160 b 669 274 704 250 699 274 m 656 689 b 742 601 728 689 742 631 b 669 529 742 558 699 533 b 439 429 569 518 497 486 b 656 689 439 429 540 689 l 656 689 m 193 617 b 410 357 324 617 410 357 b 193 457 353 429 281 457 b 107 529 150 457 107 486 b 193 617 107 574 136 617 l 193 617 m 436 824 b 410 486 529 733 410 486 b 325 710 419 578 388 650 b 313 822 294 740 283 790 b 436 824 343 853 394 864 l 436 824 "},"\"":{"ha":831,"x_min":0,"x_max":0,"o":"m 140 274 b 128 272 136 274 132 274 l 128 136 b 140 135 131 135 136 135 b 183 204 176 135 183 161 b 140 274 183 249 176 274 l 140 274 m 351 190 l 296 190 l 296 138 l 361 138 l 361 104 l 256 104 l 256 306 l 361 306 l 361 271 l 296 271 l 296 224 l 351 224 m 138 101 b 88 104 126 101 106 101 l 88 303 b 139 308 106 306 125 308 b 224 204 201 308 224 274 b 138 101 224 133 200 101 l 138 101 m 451 306 l 478 194 l 504 306 l 560 306 b 568 104 563 257 565 169 l 528 104 b 524 249 528 151 526 201 l 496 135 l 458 135 l 431 249 l 429 249 b 426 104 428 201 426 151 l 388 104 b 397 306 389 169 393 257 l 397 306 m 669 101 b 596 204 614 101 596 133 b 669 308 596 275 614 308 b 744 204 725 308 744 275 b 669 101 744 133 725 101 l 669 101 m 669 274 b 636 204 642 274 636 250 b 669 135 636 160 642 135 b 704 204 699 135 704 160 b 669 274 704 250 699 274 m 656 689 b 742 601 728 689 742 631 b 669 529 742 558 699 533 b 439 429 569 518 497 486 b 656 689 439 429 540 689 l 656 689 m 193 617 b 410 357 324 617 410 357 b 193 457 353 429 281 457 b 107 529 150 457 107 486 b 193 617 107 574 136 617 l 193 617 m 436 824 b 410 486 529 733 410 486 b 325 710 419 578 388 650 b 313 822 294 740 283 790 b 436 824 343 853 394 864 l 436 824 "},"#":{"ha":831,"x_min":0,"x_max":0,"o":"m 140 274 b 128 272 136 274 132 274 l 128 136 b 140 135 131 135 136 135 b 183 204 176 135 183 161 b 140 274 183 249 176 274 l 140 274 m 351 190 l 296 190 l 296 138 l 361 138 l 361 104 l 256 104 l 256 306 l 361 306 l 361 271 l 296 271 l 296 224 l 351 224 m 138 101 b 88 104 126 101 106 101 l 88 303 b 139 308 106 306 125 308 b 224 204 201 308 224 274 b 138 101 224 133 200 101 l 138 101 m 451 306 l 478 194 l 504 306 l 560 306 b 568 104 563 257 565 169 l 528 104 b 524 249 528 151 526 201 l 496 135 l 458 135 l 431 249 l 429 249 b 426 104 428 201 426 151 l 388 104 b 397 306 389 169 393 257 l 397 306 m 669 101 b 596 204 614 101 596 133 b 669 308 596 275 614 308 b 744 204 725 308 744 275 b 669 101 744 133 725 101 l 669 101 m 669 274 b 636 204 642 274 636 250 b 669 135 636 160 642 135 b 704 204 699 135 704 160 b 669 274 704 250 699 274 m 656 689 b 742 601 728 689 742 631 b 669 529 742 558 699 533 b 439 429 569 518 497 486 b 656 689 439 429 540 689 l 656 689 m 193 617 b 410 357 324 617 410 357 b 193 457 353 429 281 457 b 107 529 150 457 107 486 b 193 617 107 574 136 617 l 193 617 m 436 824 b 410 486 529 733 410 486 b 325 710 419 578 388 650 b 313 822 294 740 283 790 b 436 824 343 853 394 864 l 436 824 "},"$":{"ha":831,"x_min":0,"x_max":0,"o":"m 140 274 b 128 272 136 274 132 274 l 128 136 b 140 135 131 135 136 135 b 183 204 176 135 183 161 b 140 274 183 249 176 274 l 140 274 m 351 190 l 296 190 l 296 138 l 361 138 l 361 104 l 256 104 l 256 306 l 361 306 l 361 271 l 296 271 l 296 224 l 351 224 m 138 101 b 88 104 126 101 106 101 l 88 303 b 139 308 106 306 125 308 b 224 204 201 308 224 274 b 138 101 224 133 200 101 l 138 101 m 451 306 l 478 194 l 504 306 l 560 306 b 568 104 563 257 565 169 l 528 104 b 524 249 528 151 526 201 l 496 135 l 458 135 l 431 249 l 429 249 b 426 104 428 201 426 151 l 388 104 b 397 306 389 169 393 257 l 397 306 m 669 101 b 596 204 614 101 596 133 b 669 308 596 275 614 308 b 744 204 725 308 744 275 b 669 101 744 133 725 101 l 669 101 m 669 274 b 636 204 642 274 636 250 b 669 135 636 160 642 135 b 704 204 699 135 704 160 b 669 274 704 250 699 274 m 656 689 b 742 601 728 689 742 631 b 669 529 742 558 699 533 b 439 429 569 518 497 486 b 656 689 439 429 540 689 l 656 689 m 193 617 b 410 357 324 617 410 357 b 193 457 353 429 281 457 b 107 529 150 457 107 486 b 193 617 107 574 136 617 l 193 617 m 436 824 b 410 486 529 733 410 486 b 325 710 419 578 388 650 b 313 822 294 740 283 790 b 436 824 343 853 394 864 l 436 824 "},"%":{"ha":831,"x_min":0,"x_max":0,"o":"m 140 274 b 128 272 136 274 132 274 l 128 136 b 140 135 131 135 136 135 b 183 204 176 135 183 161 b 140 274 183 249 176 274 l 140 274 m 351 190 l 296 190 l 296 138 l 361 138 l 361 104 l 256 104 l 256 306 l 361 306 l 361 271 l 296 271 l 296 224 l 351 224 m 138 101 b 88 104 126 101 106 101 l 88 303 b 139 308 106 306 125 308 b 224 204 201 308 224 274 b 138 101 224 133 200 101 l 138 101 m 451 306 l 478 194 l 504 306 l 560 306 b 568 104 563 257 565 169 l 528 104 b 524 249 528 151 526 201 l 496 135 l 458 135 l 431 249 l 429 249 b 426 104 428 201 426 151 l 388 104 b 397 306 389 169 393 257 l 397 306 m 669 101 b 596 204 614 101 596 133 b 669 308 596 275 614 308 b 744 204 725 308 744 275 b 669 101 744 133 725 101 l 669 101 m 669 274 b 636 204 642 274 636 250 b 669 135 636 160 642 135 b 704 204 699 135 704 160 b 669 274 704 250 699 274 m 656 689 b 742 601 728 689 742 631 b 669 529 742 558 699 533 b 439 429 569 518 497 486 b 656 689 439 429 540 689 l 656 689 m 193 617 b 410 357 324 617 410 357 b 193 457 353 429 281 457 b 107 529 150 457 107 486 b 193 617 107 574 136 617 l 193 617 m 436 824 b 410 486 529 733 410 486 b 325 710 419 578 388 650 b 313 822 294 740 283 790 b 436 824 343 853 394 864 l 436 824 "},"&":{"ha":831,"x_min":0,"x_max":0,"o":"m 140 274 b 128 272 136 274 132 274 l 128 136 b 140 135 131 135 136 135 b 183 204 176 135 183 161 b 140 274 183 249 176 274 l 140 274 m 351 190 l 296 190 l 296 138 l 361 138 l 361 104 l 256 104 l 256 306 l 361 306 l 361 271 l 296 271 l 296 224 l 351 224 m 138 101 b 88 104 126 101 106 101 l 88 303 b 139 308 106 306 125 308 b 224 204 201 308 224 274 b 138 101 224 133 200 101 l 138 101 m 451 306 l 478 194 l 504 306 l 560 306 b 568 104 563 257 565 169 l 528 104 b 524 249 528 151 526 201 l 496 135 l 458 135 l 431 249 l 429 249 b 426 104 428 201 426 151 l 388 104 b 397 306 389 169 393 257 l 397 306 m 669 101 b 596 204 614 101 596 133 b 669 308 596 275 614 308 b 744 204 725 308 744 275 b 669 101 744 133 725 101 l 669 101 m 669 274 b 636 204 642 274 636 250 b 669 135 636 160 642 135 b 704 204 699 135 704 160 b 669 274 704 250 699 274 m 656 689 b 742 601 728 689 742 631 b 669 529 742 558 699 533 b 439 429 569 518 497 486 b 656 689 439 429 540 689 l 656 689 m 193 617 b 410 357 324 617 410 357 b 193 457 353 429 281 457 b 107 529 150 457 107 486 b 193 617 107 574 136 617 l 193 617 m 436 824 b 410 486 529 733 410 486 b 325 710 419 578 388 650 b 313 822 294 740 283 790 b 436 824 343 853 394 864 l 436 824 "},"'":{"ha":831,"x_min":0,"x_max":0,"o":"m 140 274 b 128 272 136 274 132 274 l 128 136 b 140 135 131 135 136 135 b 183 204 176 135 183 161 b 140 274 183 249 176 274 l 140 274 m 351 190 l 296 190 l 296 138 l 361 138 l 361 104 l 256 104 l 256 306 l 361 306 l 361 271 l 296 271 l 296 224 l 351 224 m 138 101 b 88 104 126 101 106 101 l 88 303 b 139 308 106 306 125 308 b 224 204 201 308 224 274 b 138 101 224 133 200 101 l 138 101 m 451 306 l 478 194 l 504 306 l 560 306 b 568 104 563 257 565 169 l 528 104 b 524 249 528 151 526 201 l 496 135 l 458 135 l 431 249 l 429 249 b 426 104 428 201 426 151 l 388 104 b 397 306 389 169 393 257 l 397 306 m 669 101 b 596 204 614 101 596 133 b 669 308 596 275 614 308 b 744 204 725 308 744 275 b 669 101 744 133 725 101 l 669 101 m 669 274 b 636 204 642 274 636 250 b 669 135 636 160 642 135 b 704 204 699 135 704 160 b 669 274 704 250 699 274 m 656 689 b 742 601 728 689 742 631 b 669 529 742 558 699 533 b 439 429 569 518 497 486 b 656 689 439 429 540 689 l 656 689 m 193 617 b 410 357 324 617 410 357 b 193 457 353 429 281 457 b 107 529 150 457 107 486 b 193 617 107 574 136 617 l 193 617 m 436 824 b 410 486 529 733 410 486 b 325 710 419 578 388 650 b 313 822 294 740 283 790 b 436 824 343 853 394 864 l 436 824 "},"(":{"ha":831,"x_min":0,"x_max":0,"o":"m 140 274 b 128 272 136 274 132 274 l 128 136 b 140 135 131 135 136 135 b 183 204 176 135 183 161 b 140 274 183 249 176 274 l 140 274 m 351 190 l 296 190 l 296 138 l 361 138 l 361 104 l 256 104 l 256 306 l 361 306 l 361 271 l 296 271 l 296 224 l 351 224 m 138 101 b 88 104 126 101 106 101 l 88 303 b 139 308 106 306 125 308 b 224 204 201 308 224 274 b 138 101 224 133 200 101 l 138 101 m 451 306 l 478 194 l 504 306 l 560 306 b 568 104 563 257 565 169 l 528 104 b 524 249 528 151 526 201 l 496 135 l 458 135 l 431 249 l 429 249 b 426 104 428 201 426 151 l 388 104 b 397 306 389 169 393 257 l 397 306 m 669 101 b 596 204 614 101 596 133 b 669 308 596 275 614 308 b 744 204 725 308 744 275 b 669 101 744 133 725 101 l 669 101 m 669 274 b 636 204 642 274 636 250 b 669 135 636 160 642 135 b 704 204 699 135 704 160 b 669 274 704 250 699 274 m 656 689 b 742 601 728 689 742 631 b 669 529 742 558 699 533 b 439 429 569 518 497 486 b 656 689 439 429 540 689 l 656 689 m 193 617 b 410 357 324 617 410 357 b 193 457 353 429 281 457 b 107 529 150 457 107 486 b 193 617 107 574 136 617 l 193 617 m 436 824 b 410 486 529 733 410 486 b 325 710 419 578 388 650 b 313 822 294 740 283 790 b 436 824 343 853 394 864 l 436 824 "},")":{"ha":831,"x_min":0,"x_max":0,"o":"m 140 274 b 128 272 136 274 132 274 l 128 136 b 140 135 131 135 136 135 b 183 204 176 135 183 161 b 140 274 183 249 176 274 l 140 274 m 351 190 l 296 190 l 296 138 l 361 138 l 361 104 l 256 104 l 256 306 l 361 306 l 361 271 l 296 271 l 296 224 l 351 224 m 138 101 b 88 104 126 101 106 101 l 88 303 b 139 308 106 306 125 308 b 224 204 201 308 224 274 b 138 101 224 133 200 101 l 138 101 m 451 306 l 478 194 l 504 306 l 560 306 b 568 104 563 257 565 169 l 528 104 b 524 249 528 151 526 201 l 496 135 l 458 135 l 431 249 l 429 249 b 426 104 428 201 426 151 l 388 104 b 397 306 389 169 393 257 l 397 306 m 669 101 b 596 204 614 101 596 133 b 669 308 596 275 614 308 b 744 204 725 308 744 275 b 669 101 744 133 725 101 l 669 101 m 669 274 b 636 204 642 274 636 250 b 669 135 636 160 642 135 b 704 204 699 135 704 160 b 669 274 704 250 699 274 m 656 689 b 742 601 728 689 742 631 b 669 529 742 558 699 533 b 439 429 569 518 497 486 b 656 689 439 429 540 689 l 656 689 m 193 617 b 410 357 324 617 410 357 b 193 457 353 429 281 457 b 107 529 150 457 107 486 b 193 617 107 574 136 617 l 193 617 m 436 824 b 410 486 529 733 410 486 b 325 710 419 578 388 650 b 313 822 294 740 283 790 b 436 824 343 853 394 864 l 436 824 "},"*":{"ha":831,"x_min":0,"x_max":0,"o":"m 140 274 b 128 272 136 274 132 274 l 128 136 b 140 135 131 135 136 135 b 183 204 176 135 183 161 b 140 274 183 249 176 274 l 140 274 m 351 190 l 296 190 l 296 138 l 361 138 l 361 104 l 256 104 l 256 306 l 361 306 l 361 271 l 296 271 l 296 224 l 351 224 m 138 101 b 88 104 126 101 106 101 l 88 303 b 139 308 106 306 125 308 b 224 204 201 308 224 274 b 138 101 224 133 200 101 l 138 101 m 451 306 l 478 194 l 504 306 l 560 306 b 568 104 563 257 565 169 l 528 104 b 524 249 528 151 526 201 l 496 135 l 458 135 l 431 249 l 429 249 b 426 104 428 201 426 151 l 388 104 b 397 306 389 169 393 257 l 397 306 m 669 101 b 596 204 614 101 596 133 b 669 308 596 275 614 308 b 744 204 725 308 744 275 b 669 101 744 133 725 101 l 669 101 m 669 274 b 636 204 642 274 636 250 b 669 135 636 160 642 135 b 704 204 699 135 704 160 b 669 274 704 250 699 274 m 656 689 b 742 601 728 689 742 631 b 669 529 742 558 699 533 b 439 429 569 518 497 486 b 656 689 439 429 540 689 l 656 689 m 193 617 b 410 357 324 617 410 357 b 193 457 353 429 281 457 b 107 529 150 457 107 486 b 193 617 107 574 136 617 l 193 617 m 436 824 b 410 486 529 733 410 486 b 325 710 419 578 388 650 b 313 822 294 740 283 790 b 436 824 343 853 394 864 l 436 824 "},"+":{"ha":831,"x_min":0,"x_max":0,"o":"m 140 274 b 128 272 136 274 132 274 l 128 136 b 140 135 131 135 136 135 b 183 204 176 135 183 161 b 140 274 183 249 176 274 l 140 274 m 351 190 l 296 190 l 296 138 l 361 138 l 361 104 l 256 104 l 256 306 l 361 306 l 361 271 l 296 271 l 296 224 l 351 224 m 138 101 b 88 104 126 101 106 101 l 88 303 b 139 308 106 306 125 308 b 224 204 201 308 224 274 b 138 101 224 133 200 101 l 138 101 m 451 306 l 478 194 l 504 306 l 560 306 b 568 104 563 257 565 169 l 528 104 b 524 249 528 151 526 201 l 496 135 l 458 135 l 431 249 l 429 249 b 426 104 428 201 426 151 l 388 104 b 397 306 389 169 393 257 l 397 306 m 669 101 b 596 204 614 101 596 133 b 669 308 596 275 614 308 b 744 204 725 308 744 275 b 669 101 744 133 725 101 l 669 101 m 669 274 b 636 204 642 274 636 250 b 669 135 636 160 642 135 b 704 204 699 135 704 160 b 669 274 704 250 699 274 m 656 689 b 742 601 728 689 742 631 b 669 529 742 558 699 533 b 439 429 569 518 497 486 b 656 689 439 429 540 689 l 656 689 m 193 617 b 410 357 324 617 410 357 b 193 457 353 429 281 457 b 107 529 150 457 107 486 b 193 617 107 574 136 617 l 193 617 m 436 824 b 410 486 529 733 410 486 b 325 710 419 578 388 650 b 313 822 294 740 283 790 b 436 824 343 853 394 864 l 436 824 "},",":{"ha":344,"x_min":0,"x_max":0,"o":"m 86 -194 b 63 -185 68 -194 63 -190 b 90 -165 63 -178 68 -175 b 197 -11 138 -144 196 -96 b 175 -12 190 -12 183 -12 b 42 117 94 -12 42 40 b 165 240 42 192 93 240 b 304 74 249 240 304 176 b 86 -194 304 -87 174 -194 "},"-":{"ha":831,"x_min":0,"x_max":0,"o":"m 140 274 b 128 272 136 274 132 274 l 128 136 b 140 135 131 135 136 135 b 183 204 176 135 183 161 b 140 274 183 249 176 274 l 140 274 m 351 190 l 296 190 l 296 138 l 361 138 l 361 104 l 256 104 l 256 306 l 361 306 l 361 271 l 296 271 l 296 224 l 351 224 m 138 101 b 88 104 126 101 106 101 l 88 303 b 139 308 106 306 125 308 b 224 204 201 308 224 274 b 138 101 224 133 200 101 l 138 101 m 451 306 l 478 194 l 504 306 l 560 306 b 568 104 563 257 565 169 l 528 104 b 524 249 528 151 526 201 l 496 135 l 458 135 l 431 249 l 429 249 b 426 104 428 201 426 151 l 388 104 b 397 306 389 169 393 257 l 397 306 m 669 101 b 596 204 614 101 596 133 b 669 308 596 275 614 308 b 744 204 725 308 744 275 b 669 101 744 133 725 101 l 669 101 m 669 274 b 636 204 642 274 636 250 b 669 135 636 160 642 135 b 704 204 699 135 704 160 b 669 274 704 250 699 274 m 656 689 b 742 601 728 689 742 631 b 669 529 742 558 699 533 b 439 429 569 518 497 486 b 656 689 439 429 540 689 l 656 689 m 193 617 b 410 357 324 617 410 357 b 193 457 353 429 281 457 b 107 529 150 457 107 486 b 193 617 107 574 136 617 l 193 617 m 436 824 b 410 486 529 733 410 486 b 325 710 419 578 388 650 b 313 822 294 740 283 790 b 436 824 343 853 394 864 l 436 824 "},".":{"ha":342,"x_min":0,"x_max":0,"o":"m 172 -14 b 39 114 92 -14 39 38 b 172 240 39 190 92 240 b 303 114 251 240 303 190 b 172 -14 303 38 251 -14 "},"/":{"ha":831,"x_min":0,"x_max":0,"o":"m 140 274 b 128 272 136 274 132 274 l 128 136 b 140 135 131 135 136 135 b 183 204 176 135 183 161 b 140 274 183 249 176 274 l 140 274 m 351 190 l 296 190 l 296 138 l 361 138 l 361 104 l 256 104 l 256 306 l 361 306 l 361 271 l 296 271 l 296 224 l 351 224 m 138 101 b 88 104 126 101 106 101 l 88 303 b 139 308 106 306 125 308 b 224 204 201 308 224 274 b 138 101 224 133 200 101 l 138 101 m 451 306 l 478 194 l 504 306 l 560 306 b 568 104 563 257 565 169 l 528 104 b 524 249 528 151 526 201 l 496 135 l 458 135 l 431 249 l 429 249 b 426 104 428 201 426 151 l 388 104 b 397 306 389 169 393 257 l 397 306 m 669 101 b 596 204 614 101 596 133 b 669 308 596 275 614 308 b 744 204 725 308 744 275 b 669 101 744 133 725 101 l 669 101 m 669 274 b 636 204 642 274 636 250 b 669 135 636 160 642 135 b 704 204 699 135 704 160 b 669 274 704 250 699 274 m 656 689 b 742 601 728 689 742 631 b 669 529 742 558 699 533 b 439 429 569 518 497 486 b 656 689 439 429 540 689 l 656 689 m 193 617 b 410 357 324 617 410 357 b 193 457 353 429 281 457 b 107 529 150 457 107 486 b 193 617 107 574 136 617 l 193 617 m 436 824 b 410 486 529 733 410 486 b 325 710 419 578 388 650 b 313 822 294 740 283 790 b 436 824 343 853 394 864 l 436 824 "},":":{"ha":342,"x_min":0,"x_max":0,"o":"m 172 468 b 39 594 92 468 39 518 b 172 722 39 671 92 722 b 303 594 251 722 303 671 b 172 468 303 518 251 468 m 39 114 b 172 240 39 190 92 240 b 303 114 251 240 303 190 b 172 -14 303 38 251 -14 b 39 114 92 -14 39 38 "},";":{"ha":347,"x_min":0,"x_max":0,"o":"m 86 -194 b 63 -185 68 -194 63 -190 b 90 -165 63 -178 68 -175 b 197 -11 138 -144 196 -96 b 175 -12 190 -12 183 -12 b 42 117 94 -12 42 40 b 165 240 42 192 93 240 b 304 74 249 240 304 176 b 86 -194 304 -87 174 -194 m 42 594 b 174 722 42 671 94 722 b 306 594 253 722 306 671 b 174 468 306 518 253 468 b 42 594 94 468 42 518 "},"<":{"ha":831,"x_min":0,"x_max":0,"o":"m 140 274 b 128 272 136 274 132 274 l 128 136 b 140 135 131 135 136 135 b 183 204 176 135 183 161 b 140 274 183 249 176 274 l 140 274 m 351 190 l 296 190 l 296 138 l 361 138 l 361 104 l 256 104 l 256 306 l 361 306 l 361 271 l 296 271 l 296 224 l 351 224 m 138 101 b 88 104 126 101 106 101 l 88 303 b 139 308 106 306 125 308 b 224 204 201 308 224 274 b 138 101 224 133 200 101 l 138 101 m 451 306 l 478 194 l 504 306 l 560 306 b 568 104 563 257 565 169 l 528 104 b 524 249 528 151 526 201 l 496 135 l 458 135 l 431 249 l 429 249 b 426 104 428 201 426 151 l 388 104 b 397 306 389 169 393 257 l 397 306 m 669 101 b 596 204 614 101 596 133 b 669 308 596 275 614 308 b 744 204 725 308 744 275 b 669 101 744 133 725 101 l 669 101 m 669 274 b 636 204 642 274 636 250 b 669 135 636 160 642 135 b 704 204 699 135 704 160 b 669 274 704 250 699 274 m 656 689 b 742 601 728 689 742 631 b 669 529 742 558 699 533 b 439 429 569 518 497 486 b 656 689 439 429 540 689 l 656 689 m 193 617 b 410 357 324 617 410 357 b 193 457 353 429 281 457 b 107 529 150 457 107 486 b 193 617 107 574 136 617 l 193 617 m 436 824 b 410 486 529 733 410 486 b 325 710 419 578 388 650 b 313 822 294 740 283 790 b 436 824 343 853 394 864 l 436 824 "},"=":{"ha":831,"x_min":0,"x_max":0,"o":"m 140 274 b 128 272 136 274 132 274 l 128 136 b 140 135 131 135 136 135 b 183 204 176 135 183 161 b 140 274 183 249 176 274 l 140 274 m 351 190 l 296 190 l 296 138 l 361 138 l 361 104 l 256 104 l 256 306 l 361 306 l 361 271 l 296 271 l 296 224 l 351 224 m 138 101 b 88 104 126 101 106 101 l 88 303 b 139 308 106 306 125 308 b 224 204 201 308 224 274 b 138 101 224 133 200 101 l 138 101 m 451 306 l 478 194 l 504 306 l 560 306 b 568 104 563 257 565 169 l 528 104 b 524 249 528 151 526 201 l 496 135 l 458 135 l 431 249 l 429 249 b 426 104 428 201 426 151 l 388 104 b 397 306 389 169 393 257 l 397 306 m 669 101 b 596 204 614 101 596 133 b 669 308 596 275 614 308 b 744 204 725 308 744 275 b 669 101 744 133 725 101 l 669 101 m 669 274 b 636 204 642 274 636 250 b 669 135 636 160 642 135 b 704 204 699 135 704 160 b 669 274 704 250 699 274 m 656 689 b 742 601 728 689 742 631 b 669 529 742 558 699 533 b 439 429 569 518 497 486 b 656 689 439 429 540 689 l 656 689 m 193 617 b 410 357 324 617 410 357 b 193 457 353 429 281 457 b 107 529 150 457 107 486 b 193 617 107 574 136 617 l 193 617 m 436 824 b 410 486 529 733 410 486 b 325 710 419 578 388 650 b 313 822 294 740 283 790 b 436 824 343 853 394 864 l 436 824 "},">":{"ha":831,"x_min":0,"x_max":0,"o":"m 140 274 b 128 272 136 274 132 274 l 128 136 b 140 135 131 135 136 135 b 183 204 176 135 183 161 b 140 274 183 249 176 274 l 140 274 m 351 190 l 296 190 l 296 138 l 361 138 l 361 104 l 256 104 l 256 306 l 361 306 l 361 271 l 296 271 l 296 224 l 351 224 m 138 101 b 88 104 126 101 106 101 l 88 303 b 139 308 106 306 125 308 b 224 204 201 308 224 274 b 138 101 224 133 200 101 l 138 101 m 451 306 l 478 194 l 504 306 l 560 306 b 568 104 563 257 565 169 l 528 104 b 524 249 528 151 526 201 l 496 135 l 458 135 l 431 249 l 429 249 b 426 104 428 201 426 151 l 388 104 b 397 306 389 169 393 257 l 397 306 m 669 101 b 596 204 614 101 596 133 b 669 308 596 275 614 308 b 744 204 725 308 744 275 b 669 101 744 133 725 101 l 669 101 m 669 274 b 636 204 642 274 636 250 b 669 135 636 160 642 135 b 704 204 699 135 704 160 b 669 274 704 250 699 274 m 656 689 b 742 601 728 689 742 631 b 669 529 742 558 699 533 b 439 429 569 518 497 486 b 656 689 439 429 540 689 l 656 689 m 193 617 b 410 357 324 617 410 357 b 193 457 353 429 281 457 b 107 529 150 457 107 486 b 193 617 107 574 136 617 l 193 617 m 436 824 b 410 486 529 733 410 486 b 325 710 419 578 388 650 b 313 822 294 740 283 790 b 436 824 343 853 394 864 l 436 824 "},"?":{"ha":731,"x_min":0,"x_max":0,"o":"m 342 317 b 328 332 333 317 328 322 b 389 572 331 449 356 515 b 449 776 424 640 449 690 b 356 938 449 874 417 938 b 263 753 283 938 271 849 b 142 594 257 675 239 594 b 24 721 68 594 24 644 b 374 958 24 860 167 958 b 693 717 574 958 693 868 b 543 494 693 597 622 539 b 367 331 467 453 403 411 b 349 317 361 321 357 317 l 342 317 m 236 114 b 368 240 236 190 289 240 b 500 114 447 240 500 190 b 368 -14 500 38 447 -14 b 236 114 289 -14 236 38 "},"@":{"ha":831,"x_min":0,"x_max":0,"o":"m 140 274 b 128 272 136 274 132 274 l 128 136 b 140 135 131 135 136 135 b 183 204 176 135 183 161 b 140 274 183 249 176 274 l 140 274 m 351 190 l 296 190 l 296 138 l 361 138 l 361 104 l 256 104 l 256 306 l 361 306 l 361 271 l 296 271 l 296 224 l 351 224 m 138 101 b 88 104 126 101 106 101 l 88 303 b 139 308 106 306 125 308 b 224 204 201 308 224 274 b 138 101 224 133 200 101 l 138 101 m 451 306 l 478 194 l 504 306 l 560 306 b 568 104 563 257 565 169 l 528 104 b 524 249 528 151 526 201 l 496 135 l 458 135 l 431 249 l 429 249 b 426 104 428 201 426 151 l 388 104 b 397 306 389 169 393 257 l 397 306 m 669 101 b 596 204 614 101 596 133 b 669 308 596 275 614 308 b 744 204 725 308 744 275 b 669 101 744 133 725 101 l 669 101 m 669 274 b 636 204 642 274 636 250 b 669 135 636 160 642 135 b 704 204 699 135 704 160 b 669 274 704 250 699 274 m 656 689 b 742 601 728 689 742 631 b 669 529 742 558 699 533 b 439 429 569 518 497 486 b 656 689 439 429 540 689 l 656 689 m 193 617 b 410 357 324 617 410 357 b 193 457 353 429 281 457 b 107 529 150 457 107 486 b 193 617 107 574 136 617 l 193 617 m 436 824 b 410 486 529 733 410 486 b 325 710 419 578 388 650 b 313 822 294 740 283 790 b 436 824 343 853 394 864 l 436 824 "},"A":{"ha":993,"x_min":0,"x_max":0,"o":"m 21 0 b 1 19 10 0 1 7 b 21 46 1 31 7 38 b 81 114 36 56 64 78 l 397 904 b 456 944 408 931 429 944 l 533 944 b 590 904 561 944 579 929 l 919 104 b 964 46 932 72 951 56 b 982 19 976 38 982 31 b 961 0 982 8 974 0 l 640 0 b 619 19 628 0 619 7 b 642 49 619 31 628 39 b 657 114 656 58 672 74 l 590 292 l 196 292 l 142 143 b 190 46 121 85 160 63 b 214 19 206 38 214 31 b 193 0 214 7 206 0 l 21 0 m 579 319 l 390 822 l 207 319 "},"B":{"ha":976,"x_min":0,"x_max":0,"o":"m 86 0 b 65 19 74 0 65 7 b 82 44 65 29 71 35 b 104 103 93 54 104 68 l 104 842 b 82 900 104 876 93 890 b 65 925 71 910 65 915 b 86 944 65 938 74 944 l 549 944 b 910 707 776 944 910 857 b 632 492 910 596 839 518 b 951 257 865 464 951 385 b 585 0 951 96 817 0 l 86 0 m 350 94 b 515 19 396 47 454 19 b 701 231 642 19 701 115 b 510 478 701 340 646 478 l 350 478 l 350 94 m 503 501 b 660 688 610 501 660 586 b 485 921 660 790 608 921 l 350 921 l 350 501 "},"C":{"ha":936,"x_min":0,"x_max":0,"o":"m 519 -14 b 40 474 235 -14 40 179 b 526 958 40 765 233 958 b 889 719 749 958 889 844 b 775 614 889 656 851 614 b 621 746 681 614 640 676 b 467 933 592 854 560 933 b 274 606 339 933 274 788 b 626 131 274 410 374 131 b 863 253 768 131 835 215 b 885 269 871 263 878 269 b 897 242 893 269 897 258 b 519 -14 897 119 747 -14 "},"D":{"ha":1025,"x_min":0,"x_max":0,"o":"m 86 0 b 65 19 74 0 65 7 b 82 44 65 29 71 35 b 104 103 93 54 104 68 l 104 842 b 82 900 104 876 93 890 b 65 925 71 910 65 915 b 86 944 65 938 74 944 l 517 944 b 983 472 799 944 983 757 b 511 0 983 188 799 0 l 86 0 m 350 110 b 508 19 393 54 449 19 b 733 401 663 19 733 197 b 449 921 733 613 650 921 l 350 921 l 350 110 "},"E":{"ha":878,"x_min":0,"x_max":0,"o":"m 86 0 b 65 19 74 0 65 7 b 82 44 65 29 71 35 b 104 103 93 54 104 68 l 104 842 b 82 900 104 876 93 890 b 65 925 71 910 65 915 b 86 944 65 938 74 944 l 760 944 b 814 892 794 944 814 925 l 814 679 b 794 657 814 667 806 657 b 740 742 774 657 760 685 b 553 921 714 824 669 921 l 353 921 l 353 504 l 485 504 b 617 597 560 504 596 550 b 654 642 628 624 638 642 b 675 617 667 642 675 632 l 675 367 b 654 342 675 351 667 342 b 617 386 638 342 628 360 b 485 479 596 433 560 479 l 353 479 l 353 82 b 411 24 353 47 375 24 l 561 24 b 757 210 678 24 726 125 b 815 300 779 272 793 300 b 835 278 826 300 835 290 l 835 53 b 781 0 835 19 815 0 l 86 0 "},"F":{"ha":832,"x_min":0,"x_max":0,"o":"m 86 0 b 65 19 74 0 65 7 b 82 44 65 29 71 35 b 104 103 93 54 104 68 l 104 842 b 82 900 104 876 93 890 b 65 925 71 910 65 915 b 86 944 65 938 74 944 l 746 944 b 800 892 779 944 800 925 l 800 679 b 779 657 800 667 792 657 b 729 738 758 657 746 686 b 539 921 701 819 658 921 l 353 921 l 353 497 l 471 497 b 603 590 544 497 581 543 b 640 635 614 617 622 635 b 660 610 653 635 660 625 l 660 360 b 640 335 660 344 653 335 b 603 379 622 335 614 353 b 471 472 581 426 544 472 l 353 472 l 353 103 b 385 46 353 68 369 56 b 404 19 399 36 404 29 b 383 0 404 7 394 0 l 86 0 "},"G":{"ha":1011,"x_min":0,"x_max":0,"o":"m 547 -14 b 40 467 236 -14 40 176 b 546 958 40 763 240 958 b 928 729 782 958 928 847 b 817 631 928 672 893 631 b 664 753 733 631 689 685 b 486 935 636 831 596 935 b 274 571 347 935 274 767 b 617 14 274 349 379 14 b 692 28 643 14 668 18 l 692 383 b 668 440 692 418 679 432 b 651 467 657 451 651 457 b 672 486 651 478 661 486 l 954 486 b 974 467 965 486 974 478 b 958 440 974 457 969 451 b 935 383 947 432 935 418 l 935 153 b 547 -14 935 75 763 -14 "},"H":{"ha":1057,"x_min":0,"x_max":0,"o":"m 685 0 b 665 19 674 0 665 7 b 682 44 665 29 669 35 b 704 103 692 54 704 68 l 704 465 l 353 465 l 353 103 b 375 44 353 68 364 54 b 392 19 386 35 392 29 b 371 0 392 7 383 0 l 86 0 b 65 19 74 0 65 7 b 82 44 65 29 71 35 b 104 103 93 54 104 68 l 104 842 b 82 900 104 876 93 890 b 65 925 71 910 65 915 b 86 944 65 938 74 944 l 371 944 b 392 925 383 944 392 938 b 375 900 392 915 386 910 b 353 842 364 890 353 876 l 353 494 l 704 494 l 704 842 b 682 900 704 876 692 890 b 665 925 669 910 665 915 b 685 944 665 938 674 944 l 971 944 b 992 925 982 944 992 938 b 975 900 992 915 986 910 b 951 842 964 890 951 876 l 951 103 b 975 44 951 68 964 54 b 992 19 986 35 992 29 b 971 0 992 7 982 0 l 685 0 "},"I":{"ha":457,"x_min":0,"x_max":0,"o":"m 86 0 b 65 19 74 0 65 7 b 82 44 65 29 71 35 b 104 103 93 54 104 68 l 104 842 b 82 900 104 876 93 890 b 65 925 71 910 65 915 b 86 944 65 938 74 944 l 371 944 b 392 925 383 944 392 938 b 375 900 392 915 386 910 b 353 842 364 890 353 876 l 353 103 b 375 44 353 68 364 54 b 392 19 386 35 392 29 b 371 0 392 7 383 0 l 86 0 "},"J":{"ha":779,"x_min":0,"x_max":0,"o":"m 350 -14 b 18 207 153 -14 18 79 b 150 335 18 285 68 335 b 282 172 258 335 275 247 b 369 6 292 83 304 6 b 450 129 421 6 450 56 l 450 842 b 428 900 450 876 438 890 b 411 925 415 910 411 915 b 431 944 411 938 419 944 l 717 944 b 738 925 728 944 738 938 b 721 900 738 915 732 910 b 697 842 710 890 697 876 l 697 265 b 350 -14 697 92 568 -14 "},"K":{"ha":976,"x_min":0,"x_max":0,"o":"m 86 0 b 65 19 74 0 65 7 b 82 44 65 29 71 35 b 104 103 93 54 104 68 l 104 842 b 82 900 104 876 93 890 b 65 925 71 910 65 915 b 86 944 65 938 74 944 l 371 944 b 392 925 383 944 392 938 b 375 900 392 915 386 910 b 353 842 364 890 353 876 l 353 457 l 699 808 b 694 896 738 847 731 876 b 669 925 679 906 669 914 b 690 944 669 938 679 944 l 894 944 b 915 925 907 944 915 938 b 881 892 915 913 904 903 b 756 800 842 871 794 835 l 574 632 l 889 147 b 958 64 922 94 940 75 b 981 40 975 56 981 51 b 860 -14 981 10 926 -14 b 611 125 753 -14 663 39 l 394 468 l 353 431 l 353 103 b 375 44 353 68 364 54 b 392 19 386 35 392 29 b 371 0 392 7 383 0 l 86 0 "},"L":{"ha":822,"x_min":0,"x_max":0,"o":"m 86 0 b 65 19 74 0 65 7 b 82 44 65 29 71 35 b 104 103 93 54 104 68 l 104 842 b 82 900 104 876 93 890 b 65 925 71 910 65 915 b 86 944 65 938 74 944 l 371 944 b 392 925 383 944 392 938 b 375 900 392 915 386 910 b 353 842 364 890 353 876 l 353 82 b 411 24 353 47 375 24 l 515 24 b 713 215 629 24 682 128 b 768 300 733 269 746 300 b 789 278 782 300 789 290 l 789 53 b 735 0 789 19 769 0 l 86 0 "},"M":{"ha":1199,"x_min":0,"x_max":0,"o":"m 67 0 b 47 19 56 0 47 7 b 74 54 47 31 57 40 b 104 203 96 72 104 104 l 104 842 b 82 900 104 876 93 890 b 65 925 71 910 65 915 b 86 944 65 938 74 944 l 297 944 b 356 903 325 944 347 932 l 593 199 l 822 904 b 879 944 831 932 850 944 l 1114 944 b 1133 925 1125 944 1133 938 b 1117 900 1133 915 1128 910 b 1094 842 1107 890 1094 876 l 1094 103 b 1117 44 1094 68 1107 54 b 1133 19 1128 35 1133 29 b 1114 0 1133 7 1125 0 l 828 0 b 808 19 817 0 808 7 b 825 44 808 29 813 35 b 847 103 835 54 847 68 l 847 836 l 563 40 b 508 0 554 14 533 0 l 478 0 b 424 40 450 0 432 15 l 133 835 l 133 250 b 208 57 133 125 157 89 b 246 19 236 39 246 32 b 226 0 246 7 238 0 l 67 0 "},"N":{"ha":950,"x_min":0,"x_max":0,"o":"m 65 0 b 44 19 53 0 44 7 b 71 54 44 31 54 40 b 104 203 94 74 104 104 l 104 838 b 76 900 104 874 89 889 b 60 925 65 910 60 915 b 81 944 60 938 69 944 l 294 944 b 354 913 321 944 340 935 l 822 193 l 822 694 b 749 888 822 819 799 856 b 710 925 719 906 710 913 b 731 944 710 938 718 944 l 889 944 b 908 925 900 944 908 938 b 882 890 908 914 899 904 b 851 742 860 872 851 840 l 851 50 b 800 0 851 18 833 0 l 719 0 b 660 32 693 0 674 10 l 133 833 l 133 250 b 208 57 133 125 157 89 b 246 19 236 39 246 32 b 226 0 246 7 238 0 l 65 0 "},"O":{"ha":1053,"x_min":0,"x_max":0,"o":"m 526 -14 b 40 472 233 -14 40 179 b 526 958 40 765 233 958 b 1011 472 818 958 1011 765 b 526 -14 1011 179 818 -14 m 274 621 b 594 11 274 361 407 11 b 778 324 714 11 778 151 b 460 933 778 578 650 933 b 274 621 342 933 274 794 "},"P":{"ha":931,"x_min":0,"x_max":0,"o":"m 86 0 b 65 19 74 0 65 7 b 82 44 65 29 71 35 b 104 103 93 54 104 68 l 104 842 b 82 900 104 876 93 890 b 65 925 71 910 65 915 b 86 944 65 938 74 944 l 526 944 b 901 632 753 944 901 824 b 519 310 901 440 751 310 l 353 310 l 353 103 b 386 44 353 68 369 56 b 404 19 399 36 404 29 b 383 0 404 7 394 0 l 86 0 m 353 404 b 492 329 393 357 443 329 b 651 569 600 329 651 438 b 433 921 651 710 589 921 l 353 921 l 353 404 "},"Q":{"ha":1053,"x_min":0,"x_max":0,"o":"m 526 -14 b 474 -11 508 -14 492 -12 b 554 -44 504 -21 531 -32 b 747 -97 606 -72 654 -97 b 922 -47 849 -97 899 -65 b 947 -35 933 -39 940 -35 b 963 -61 957 -35 963 -43 b 721 -272 963 -128 910 -272 b 472 -165 603 -272 533 -217 b 293 -89 410 -114 353 -89 b 171 -142 232 -89 192 -115 b 146 -161 161 -154 153 -161 b 133 -143 139 -161 133 -154 b 363 4 133 -79 207 4 l 381 4 b 40 472 171 57 40 231 b 526 958 40 765 233 958 b 1011 472 818 958 1011 765 b 526 -14 1011 179 818 -14 m 274 621 b 594 11 274 361 407 11 b 778 324 714 11 778 151 b 460 933 778 578 650 933 b 274 621 342 933 274 794 "},"R":{"ha":985,"x_min":0,"x_max":0,"o":"m 86 0 b 65 19 74 0 65 7 b 82 44 65 29 71 35 b 104 103 93 54 104 68 l 104 842 b 82 900 104 876 93 890 b 65 925 71 910 65 915 b 86 944 65 938 74 944 l 560 944 b 908 690 768 944 908 844 b 685 431 908 569 819 472 l 881 147 b 964 64 915 96 944 75 b 985 40 979 56 985 51 b 860 -14 985 10 931 -14 b 610 125 760 -14 665 35 l 429 408 l 350 408 l 350 103 b 374 44 350 68 363 54 b 390 19 385 35 390 29 b 369 0 390 7 381 0 l 86 0 m 503 432 b 663 622 613 432 663 518 b 449 921 663 743 600 921 l 350 921 l 350 432 "},"S":{"ha":858,"x_min":0,"x_max":0,"o":"m 429 -14 b 36 211 197 -14 36 85 b 133 308 36 272 74 308 b 263 193 204 308 238 261 b 467 7 299 96 340 7 b 633 144 567 7 633 58 b 374 371 633 260 518 314 b 56 682 219 431 56 496 b 435 958 56 854 193 958 b 785 754 668 958 785 860 b 696 671 785 697 750 671 b 578 772 629 671 597 710 b 407 938 550 864 518 938 b 247 801 306 938 247 879 b 510 581 247 690 364 640 b 825 271 663 521 825 454 b 429 -14 825 92 675 -14 "},"T":{"ha":914,"x_min":0,"x_max":0,"o":"m 314 0 b 294 19 303 0 294 7 b 311 44 294 29 299 35 b 333 103 321 54 333 68 l 333 921 l 282 921 b 104 731 175 921 135 822 b 49 644 88 679 72 644 b 28 667 36 644 28 653 l 28 892 b 82 944 28 925 49 944 l 832 944 b 886 892 865 944 886 925 l 886 667 b 865 644 886 653 878 644 b 810 731 842 644 828 679 b 632 921 779 822 739 921 l 581 921 l 581 103 b 604 44 581 68 593 54 b 621 19 615 35 621 29 b 600 0 621 7 611 0 l 314 0 "},"U":{"ha":986,"x_min":0,"x_max":0,"o":"m 507 -11 b 97 346 260 -11 97 131 l 97 842 b 75 900 97 876 86 890 b 58 925 64 910 58 915 b 79 944 58 938 67 944 l 364 944 b 385 925 376 944 385 938 b 368 900 385 915 379 910 b 346 842 357 890 346 876 l 346 322 b 604 75 346 174 449 75 b 863 326 760 75 863 175 l 863 694 b 788 888 863 819 839 856 b 750 925 760 906 750 913 b 769 944 750 938 758 944 l 928 944 b 949 925 940 944 949 938 b 922 890 949 914 939 906 b 890 742 899 872 890 840 l 890 311 b 507 -11 890 117 738 -11 "},"V":{"ha":950,"x_min":0,"x_max":0,"o":"m 440 0 b 383 40 413 0 393 15 l 76 840 b 32 899 65 872 44 889 b 14 925 19 907 14 914 b 35 944 14 936 22 944 l 356 944 b 376 925 368 944 376 938 b 354 896 376 914 368 906 b 339 831 340 886 325 871 l 578 136 l 803 786 b 764 899 828 860 788 885 b 740 925 749 907 740 914 b 760 944 740 938 749 944 l 928 944 b 949 925 939 944 949 938 b 926 899 949 914 940 907 b 869 831 911 889 883 867 l 565 40 b 508 0 557 14 535 0 l 440 0 "},"W":{"ha":1365,"x_min":0,"x_max":0,"o":"m 375 0 b 319 40 349 0 326 15 l 79 840 b 35 899 69 871 47 889 b 17 925 22 907 17 914 b 38 944 17 936 25 944 l 357 944 b 378 925 368 944 378 938 b 356 896 378 914 368 906 b 340 831 342 886 331 871 l 511 139 l 704 901 b 761 944 711 931 732 944 l 800 944 b 856 900 829 944 849 931 l 1050 139 l 1222 792 b 1175 899 1239 861 1200 885 b 1151 925 1160 907 1151 914 b 1172 944 1151 938 1161 944 l 1340 944 b 1360 925 1351 944 1360 938 b 1338 899 1360 914 1351 907 b 1281 831 1324 889 1292 867 l 1043 40 b 985 0 1035 14 1011 0 l 908 0 b 853 40 882 0 860 15 l 690 681 l 506 40 b 449 0 499 14 475 0 l 375 0 "},"X":{"ha":949,"x_min":0,"x_max":0,"o":"m 565 0 b 546 19 554 0 546 7 b 568 49 546 31 554 39 b 583 117 583 60 604 82 l 386 417 l 190 136 b 201 46 160 90 175 60 b 225 19 217 38 225 31 b 206 0 225 7 217 0 l 38 0 b 17 19 25 0 17 7 b 49 50 17 32 33 42 b 119 114 71 61 97 86 l 371 439 l 107 840 b 50 899 93 864 63 889 b 32 925 38 907 32 914 b 53 944 32 936 40 944 l 399 944 b 418 925 410 944 418 938 b 396 896 418 914 410 906 b 381 828 381 885 358 863 l 561 551 l 740 808 b 728 899 771 854 754 885 b 704 925 713 907 704 914 b 725 944 704 938 714 944 l 893 944 b 914 925 904 944 914 938 b 882 894 914 913 897 903 b 811 831 860 883 833 858 l 576 529 l 854 104 b 914 46 872 76 899 56 b 932 19 926 39 932 31 b 911 0 932 8 924 0 l 565 0 "},"Y":{"ha":928,"x_min":0,"x_max":0,"o":"m 321 0 b 300 19 310 0 300 7 b 317 44 300 29 306 35 b 340 103 328 54 340 68 l 340 394 l 81 840 b 24 899 67 864 38 889 b 7 925 13 907 7 914 b 28 944 7 936 15 944 l 374 944 b 393 925 385 944 393 938 b 371 896 393 914 385 906 b 354 828 356 885 335 864 l 574 421 l 765 801 b 740 899 793 857 765 885 b 717 925 725 907 717 914 b 738 944 717 938 725 944 l 904 944 b 925 925 917 944 925 938 b 896 893 925 913 911 903 b 835 831 874 879 851 861 l 588 397 l 588 103 b 610 44 588 68 600 54 b 626 19 622 35 626 29 b 607 0 626 7 618 0 l 321 0 "},"Z":{"ha":876,"x_min":0,"x_max":0,"o":"m 100 0 b 42 53 64 0 42 21 b 57 97 42 65 47 81 l 581 921 l 325 921 b 126 736 193 921 151 818 b 74 657 113 689 96 657 b 53 681 61 657 53 668 l 53 892 b 107 944 53 925 74 944 l 763 944 b 822 893 800 944 822 924 b 807 847 822 881 818 864 l 283 24 l 544 24 b 753 214 678 24 724 128 b 808 300 772 265 786 300 b 831 276 822 300 831 290 l 831 53 b 776 0 831 19 810 0 l 100 0 "},"[":{"ha":831,"x_min":0,"x_max":0,"o":"m 140 274 b 128 272 136 274 132 274 l 128 136 b 140 135 131 135 136 135 b 183 204 176 135 183 161 b 140 274 183 249 176 274 l 140 274 m 351 190 l 296 190 l 296 138 l 361 138 l 361 104 l 256 104 l 256 306 l 361 306 l 361 271 l 296 271 l 296 224 l 351 224 m 138 101 b 88 104 126 101 106 101 l 88 303 b 139 308 106 306 125 308 b 224 204 201 308 224 274 b 138 101 224 133 200 101 l 138 101 m 451 306 l 478 194 l 504 306 l 560 306 b 568 104 563 257 565 169 l 528 104 b 524 249 528 151 526 201 l 496 135 l 458 135 l 431 249 l 429 249 b 426 104 428 201 426 151 l 388 104 b 397 306 389 169 393 257 l 397 306 m 669 101 b 596 204 614 101 596 133 b 669 308 596 275 614 308 b 744 204 725 308 744 275 b 669 101 744 133 725 101 l 669 101 m 669 274 b 636 204 642 274 636 250 b 669 135 636 160 642 135 b 704 204 699 135 704 160 b 669 274 704 250 699 274 m 656 689 b 742 601 728 689 742 631 b 669 529 742 558 699 533 b 439 429 569 518 497 486 b 656 689 439 429 540 689 l 656 689 m 193 617 b 410 357 324 617 410 357 b 193 457 353 429 281 457 b 107 529 150 457 107 486 b 193 617 107 574 136 617 l 193 617 m 436 824 b 410 486 529 733 410 486 b 325 710 419 578 388 650 b 313 822 294 740 283 790 b 436 824 343 853 394 864 l 436 824 "},"\\":{"ha":831,"x_min":0,"x_max":0,"o":"m 140 274 b 128 272 136 274 132 274 l 128 136 b 140 135 131 135 136 135 b 183 204 176 135 183 161 b 140 274 183 249 176 274 l 140 274 m 351 190 l 296 190 l 296 138 l 361 138 l 361 104 l 256 104 l 256 306 l 361 306 l 361 271 l 296 271 l 296 224 l 351 224 m 138 101 b 88 104 126 101 106 101 l 88 303 b 139 308 106 306 125 308 b 224 204 201 308 224 274 b 138 101 224 133 200 101 l 138 101 m 451 306 l 478 194 l 504 306 l 560 306 b 568 104 563 257 565 169 l 528 104 b 524 249 528 151 526 201 l 496 135 l 458 135 l 431 249 l 429 249 b 426 104 428 201 426 151 l 388 104 b 397 306 389 169 393 257 l 397 306 m 669 101 b 596 204 614 101 596 133 b 669 308 596 275 614 308 b 744 204 725 308 744 275 b 669 101 744 133 725 101 l 669 101 m 669 274 b 636 204 642 274 636 250 b 669 135 636 160 642 135 b 704 204 699 135 704 160 b 669 274 704 250 699 274 m 656 689 b 742 601 728 689 742 631 b 669 529 742 558 699 533 b 439 429 569 518 497 486 b 656 689 439 429 540 689 l 656 689 m 193 617 b 410 357 324 617 410 357 b 193 457 353 429 281 457 b 107 529 150 457 107 486 b 193 617 107 574 136 617 l 193 617 m 436 824 b 410 486 529 733 410 486 b 325 710 419 578 388 650 b 313 822 294 740 283 790 b 436 824 343 853 394 864 l 436 824 "},"]":{"ha":831,"x_min":0,"x_max":0,"o":"m 140 274 b 128 272 136 274 132 274 l 128 136 b 140 135 131 135 136 135 b 183 204 176 135 183 161 b 140 274 183 249 176 274 l 140 274 m 351 190 l 296 190 l 296 138 l 361 138 l 361 104 l 256 104 l 256 306 l 361 306 l 361 271 l 296 271 l 296 224 l 351 224 m 138 101 b 88 104 126 101 106 101 l 88 303 b 139 308 106 306 125 308 b 224 204 201 308 224 274 b 138 101 224 133 200 101 l 138 101 m 451 306 l 478 194 l 504 306 l 560 306 b 568 104 563 257 565 169 l 528 104 b 524 249 528 151 526 201 l 496 135 l 458 135 l 431 249 l 429 249 b 426 104 428 201 426 151 l 388 104 b 397 306 389 169 393 257 l 397 306 m 669 101 b 596 204 614 101 596 133 b 669 308 596 275 614 308 b 744 204 725 308 744 275 b 669 101 744 133 725 101 l 669 101 m 669 274 b 636 204 642 274 636 250 b 669 135 636 160 642 135 b 704 204 699 135 704 160 b 669 274 704 250 699 274 m 656 689 b 742 601 728 689 742 631 b 669 529 742 558 699 533 b 439 429 569 518 497 486 b 656 689 439 429 540 689 l 656 689 m 193 617 b 410 357 324 617 410 357 b 193 457 353 429 281 457 b 107 529 150 457 107 486 b 193 617 107 574 136 617 l 193 617 m 436 824 b 410 486 529 733 410 486 b 325 710 419 578 388 650 b 313 822 294 740 283 790 b 436 824 343 853 394 864 l 436 824 "},"^":{"ha":831,"x_min":0,"x_max":0,"o":"m 140 274 b 128 272 136 274 132 274 l 128 136 b 140 135 131 135 136 135 b 183 204 176 135 183 161 b 140 274 183 249 176 274 l 140 274 m 351 190 l 296 190 l 296 138 l 361 138 l 361 104 l 256 104 l 256 306 l 361 306 l 361 271 l 296 271 l 296 224 l 351 224 m 138 101 b 88 104 126 101 106 101 l 88 303 b 139 308 106 306 125 308 b 224 204 201 308 224 274 b 138 101 224 133 200 101 l 138 101 m 451 306 l 478 194 l 504 306 l 560 306 b 568 104 563 257 565 169 l 528 104 b 524 249 528 151 526 201 l 496 135 l 458 135 l 431 249 l 429 249 b 426 104 428 201 426 151 l 388 104 b 397 306 389 169 393 257 l 397 306 m 669 101 b 596 204 614 101 596 133 b 669 308 596 275 614 308 b 744 204 725 308 744 275 b 669 101 744 133 725 101 l 669 101 m 669 274 b 636 204 642 274 636 250 b 669 135 636 160 642 135 b 704 204 699 135 704 160 b 669 274 704 250 699 274 m 656 689 b 742 601 728 689 742 631 b 669 529 742 558 699 533 b 439 429 569 518 497 486 b 656 689 439 429 540 689 l 656 689 m 193 617 b 410 357 324 617 410 357 b 193 457 353 429 281 457 b 107 529 150 457 107 486 b 193 617 107 574 136 617 l 193 617 m 436 824 b 410 486 529 733 410 486 b 325 710 419 578 388 650 b 313 822 294 740 283 790 b 436 824 343 853 394 864 l 436 824 "},"_":{"ha":831,"x_min":0,"x_max":0,"o":"m 140 274 b 128 272 136 274 132 274 l 128 136 b 140 135 131 135 136 135 b 183 204 176 135 183 161 b 140 274 183 249 176 274 l 140 274 m 351 190 l 296 190 l 296 138 l 361 138 l 361 104 l 256 104 l 256 306 l 361 306 l 361 271 l 296 271 l 296 224 l 351 224 m 138 101 b 88 104 126 101 106 101 l 88 303 b 139 308 106 306 125 308 b 224 204 201 308 224 274 b 138 101 224 133 200 101 l 138 101 m 451 306 l 478 194 l 504 306 l 560 306 b 568 104 563 257 565 169 l 528 104 b 524 249 528 151 526 201 l 496 135 l 458 135 l 431 249 l 429 249 b 426 104 428 201 426 151 l 388 104 b 397 306 389 169 393 257 l 397 306 m 669 101 b 596 204 614 101 596 133 b 669 308 596 275 614 308 b 744 204 725 308 744 275 b 669 101 744 133 725 101 l 669 101 m 669 274 b 636 204 642 274 636 250 b 669 135 636 160 642 135 b 704 204 699 135 704 160 b 669 274 704 250 699 274 m 656 689 b 742 601 728 689 742 631 b 669 529 742 558 699 533 b 439 429 569 518 497 486 b 656 689 439 429 540 689 l 656 689 m 193 617 b 410 357 324 617 410 357 b 193 457 353 429 281 457 b 107 529 150 457 107 486 b 193 617 107 574 136 617 l 193 617 m 436 824 b 410 486 529 733 410 486 b 325 710 419 578 388 650 b 313 822 294 740 283 790 b 436 824 343 853 394 864 l 436 824 "},"`":{"ha":831,"x_min":0,"x_max":0,"o":"m 140 274 b 128 272 136 274 132 274 l 128 136 b 140 135 131 135 136 135 b 183 204 176 135 183 161 b 140 274 183 249 176 274 l 140 274 m 351 190 l 296 190 l 296 138 l 361 138 l 361 104 l 256 104 l 256 306 l 361 306 l 361 271 l 296 271 l 296 224 l 351 224 m 138 101 b 88 104 126 101 106 101 l 88 303 b 139 308 106 306 125 308 b 224 204 201 308 224 274 b 138 101 224 133 200 101 l 138 101 m 451 306 l 478 194 l 504 306 l 560 306 b 568 104 563 257 565 169 l 528 104 b 524 249 528 151 526 201 l 496 135 l 458 135 l 431 249 l 429 249 b 426 104 428 201 426 151 l 388 104 b 397 306 389 169 393 257 l 397 306 m 669 101 b 596 204 614 101 596 133 b 669 308 596 275 614 308 b 744 204 725 308 744 275 b 669 101 744 133 725 101 l 669 101 m 669 274 b 636 204 642 274 636 250 b 669 135 636 160 642 135 b 704 204 699 135 704 160 b 669 274 704 250 699 274 m 656 689 b 742 601 728 689 742 631 b 669 529 742 558 699 533 b 439 429 569 518 497 486 b 656 689 439 429 540 689 l 656 689 m 193 617 b 410 357 324 617 410 357 b 193 457 353 429 281 457 b 107 529 150 457 107 486 b 193 617 107 574 136 617 l 193 617 m 436 824 b 410 486 529 733 410 486 b 325 710 419 578 388 650 b 313 822 294 740 283 790 b 436 824 343 853 394 864 l 436 824 "},"a":{"ha":754,"x_min":0,"x_max":0,"o":"m 614 -14 b 461 85 538 -14 482 19 b 246 -14 410 22 335 -14 b 26 172 115 -14 26 57 b 453 410 26 350 243 407 l 453 544 b 344 706 453 664 404 706 b 251 560 276 706 264 643 b 149 454 244 507 229 454 b 51 543 83 454 51 492 b 358 722 51 639 168 722 b 683 463 543 722 683 644 l 683 90 b 704 49 683 64 692 56 b 717 32 713 44 717 40 b 614 -14 717 8 676 -14 m 249 244 b 382 76 249 144 308 76 b 457 103 410 76 436 86 b 453 146 454 115 453 131 l 453 371 b 388 389 435 382 414 389 b 249 244 306 389 249 336 "},"b":{"ha":840,"x_min":0,"x_max":0,"o":"m 494 -14 b 336 32 417 -14 371 10 b 257 64 311 49 286 64 b 182 26 226 64 203 46 b 118 -7 161 8 142 -7 b 81 31 94 -7 81 7 l 81 885 b 61 928 81 906 71 917 b 47 954 53 938 47 944 b 68 972 47 965 57 972 l 258 972 b 311 918 290 972 311 951 l 311 590 b 521 722 363 676 436 722 b 807 361 694 722 807 579 b 494 -14 807 135 683 -14 m 311 221 b 463 6 339 108 388 6 b 579 253 539 6 579 118 b 406 625 579 394 524 625 b 311 557 364 625 331 601 l 311 221 "},"c":{"ha":725,"x_min":0,"x_max":0,"o":"m 397 -14 b 32 354 178 -14 32 131 b 397 722 32 575 181 722 b 688 532 560 722 688 638 b 586 442 688 474 647 442 b 465 561 503 442 475 501 b 378 706 450 646 433 706 b 260 469 301 706 260 590 b 497 113 260 321 319 113 b 664 200 590 113 642 168 b 686 221 675 215 681 221 b 697 196 693 221 697 215 b 397 -14 697 89 581 -14 "},"d":{"ha":843,"x_min":0,"x_max":0,"o":"m 321 -14 b 33 347 147 -14 33 129 b 347 722 33 574 157 722 b 531 642 429 722 488 693 l 531 885 b 511 928 531 906 521 917 b 497 954 503 938 497 944 b 517 972 497 965 506 972 l 707 972 b 761 918 740 972 761 951 l 761 90 b 781 49 761 64 769 56 b 794 32 789 44 794 40 b 690 -14 794 8 753 -14 b 532 114 603 -14 544 31 b 321 -14 482 31 404 -14 m 261 458 b 436 83 261 315 317 83 b 531 150 478 83 511 106 l 531 489 b 379 703 504 603 454 703 b 261 458 303 703 261 592 "},"e":{"ha":726,"x_min":0,"x_max":0,"o":"m 397 -14 b 32 354 179 -14 32 132 b 404 722 32 575 181 722 b 688 528 571 722 688 643 b 279 321 688 385 511 328 b 496 113 308 211 375 113 b 669 193 592 113 647 167 b 689 208 679 204 683 208 b 699 185 694 208 699 203 b 397 -14 699 97 590 -14 m 260 465 b 275 336 260 425 264 381 b 482 526 428 347 482 421 b 383 706 482 625 444 706 b 260 465 303 706 260 590 "},"f":{"ha":515,"x_min":0,"x_max":0,"o":"m 85 0 b 67 17 74 0 67 6 b 79 38 67 25 72 32 b 99 83 89 49 99 60 l 99 671 l 39 671 b 21 690 28 671 21 678 b 39 708 21 701 28 708 l 99 708 l 99 733 b 356 986 99 886 199 986 b 554 857 474 986 554 929 b 468 776 554 811 521 776 b 371 861 414 776 382 814 b 299 963 358 915 340 963 b 243 876 264 963 243 933 b 319 708 243 815 269 758 l 458 708 b 478 690 471 708 478 701 b 458 671 478 678 471 671 l 329 671 l 329 83 b 350 42 329 61 338 50 b 371 17 364 32 371 26 b 353 0 371 6 365 0 l 85 0 "},"g":{"ha":832,"x_min":0,"x_max":0,"o":"m 383 -264 b 74 -96 226 -264 74 -207 b 172 -3 74 -39 114 -3 b 288 -106 238 -3 269 -50 b 406 -247 310 -174 338 -247 b 531 -47 479 -247 531 -169 l 531 132 b 321 38 481 69 407 38 b 33 378 147 38 33 172 b 357 722 33 586 158 722 b 599 621 454 722 531 688 b 653 668 619 636 638 653 b 724 715 676 694 697 715 b 761 676 747 715 761 700 l 761 47 b 383 -264 761 -142 617 -264 m 263 476 b 438 108 263 338 317 108 b 531 167 478 108 508 129 l 531 475 b 379 706 503 596 453 706 b 263 476 303 706 263 601 "},"h":{"ha":842,"x_min":0,"x_max":0,"o":"m 524 0 b 506 17 513 0 506 6 b 518 38 506 25 511 32 b 539 83 529 49 539 60 l 539 525 b 439 624 539 583 497 624 b 313 544 388 624 342 593 l 313 83 b 333 38 313 60 322 49 b 346 17 340 32 346 25 b 328 0 346 6 339 0 l 68 0 b 50 17 57 0 50 6 b 63 38 50 25 56 32 b 82 83 72 49 82 60 l 82 885 b 63 928 82 906 72 917 b 49 954 54 938 49 944 b 69 972 49 965 58 972 l 260 972 b 313 918 292 972 313 951 l 313 575 b 551 722 367 665 454 722 b 769 511 678 722 769 646 l 769 83 b 789 38 769 60 779 49 b 801 17 796 32 801 25 b 783 0 801 6 794 0 l 524 0 "},"i":{"ha":392,"x_min":0,"x_max":0,"o":"m 68 0 b 50 17 57 0 50 6 b 63 38 50 25 56 32 b 82 83 72 49 82 60 l 82 621 b 63 664 82 642 72 653 b 49 690 54 674 49 681 b 69 708 49 701 58 708 l 260 708 b 313 654 292 708 313 688 l 313 83 b 333 38 313 60 322 49 b 346 17 340 32 346 25 b 328 0 346 6 339 0 l 68 0 m 72 899 b 194 1014 72 968 121 1014 b 315 899 267 1014 315 968 b 194 782 315 829 267 782 b 72 899 121 782 72 829 "},"j":{"ha":401,"x_min":0,"x_max":0,"o":"m 88 -264 b -104 -136 -28 -264 -104 -210 b -18 -54 -104 -92 -76 -54 b 74 -135 43 -54 63 -96 b 144 -237 92 -194 110 -237 b 190 -174 171 -237 190 -214 b 139 -46 190 -132 171 -94 b 96 85 115 -11 96 29 l 96 621 b 76 664 96 642 86 653 b 63 690 68 674 63 681 b 83 708 63 701 72 708 l 274 708 b 326 654 307 708 326 688 l 326 -15 b 88 -264 326 -167 231 -264 m 83 899 b 206 1014 83 968 132 1014 b 328 899 279 1014 328 968 b 206 782 328 829 279 782 b 83 899 132 782 83 829 "},"k":{"ha":807,"x_min":0,"x_max":0,"o":"m 68 0 b 50 17 57 0 50 6 b 63 38 50 25 56 32 b 82 83 72 49 82 60 l 82 885 b 63 928 82 906 72 917 b 49 954 54 938 49 944 b 69 972 49 965 58 972 l 260 972 b 313 918 292 972 313 951 l 313 342 l 557 585 b 563 660 583 611 588 644 b 536 690 549 669 536 678 b 556 708 536 700 543 708 l 728 708 b 747 690 740 708 747 700 b 701 650 747 674 728 664 b 589 563 676 638 619 590 l 515 497 l 725 124 b 793 54 751 78 775 63 b 807 38 803 49 807 46 b 697 -14 807 18 774 -14 b 463 129 607 -14 506 33 l 349 349 l 313 317 l 313 83 b 333 38 313 60 322 49 b 346 17 340 32 346 25 b 328 0 346 6 339 0 l 68 0 "},"l":{"ha":394,"x_min":0,"x_max":0,"o":"m 68 0 b 50 17 57 0 50 6 b 63 38 50 25 56 32 b 82 83 72 49 82 60 l 82 885 b 63 928 82 906 72 917 b 49 954 54 938 49 944 b 69 972 49 965 58 972 l 260 972 b 313 918 292 972 313 951 l 313 83 b 333 38 313 60 322 49 b 346 17 340 32 346 25 b 328 0 346 6 339 0 l 68 0 "},"m":{"ha":1261,"x_min":0,"x_max":0,"o":"m 943 0 b 925 17 932 0 925 6 b 938 38 925 25 931 32 b 958 83 949 49 958 60 l 958 525 b 865 624 958 586 918 624 b 749 544 818 624 775 593 b 750 511 750 533 750 522 l 750 83 b 771 38 750 60 760 49 b 783 17 778 32 783 25 b 765 0 783 6 776 0 l 506 0 b 488 17 494 0 488 6 b 500 38 488 25 493 32 b 519 83 510 49 519 60 l 519 525 b 428 624 519 586 482 624 b 313 547 381 624 339 594 l 313 83 b 333 38 313 60 322 49 b 346 17 340 32 346 25 b 328 0 346 6 339 0 l 68 0 b 50 17 57 0 50 6 b 63 38 50 25 56 32 b 82 83 72 49 82 60 l 82 621 b 63 664 82 642 72 653 b 49 690 54 674 49 681 b 69 708 49 701 58 708 l 260 708 b 313 654 292 708 313 688 l 313 579 b 540 722 364 667 446 722 b 743 572 642 722 721 669 b 978 722 794 664 881 722 b 1189 511 1099 722 1189 647 l 1189 83 b 1208 38 1189 60 1199 49 b 1221 17 1215 32 1221 25 b 1203 0 1221 6 1214 0 l 943 0 "},"n":{"ha":842,"x_min":0,"x_max":0,"o":"m 524 0 b 506 17 513 0 506 6 b 518 38 506 25 511 32 b 539 83 529 49 539 60 l 539 525 b 439 624 539 583 497 624 b 313 544 388 624 342 593 l 313 83 b 333 38 313 60 322 49 b 346 17 340 32 346 25 b 328 0 346 6 339 0 l 68 0 b 50 17 57 0 50 6 b 63 38 50 25 56 32 b 82 83 72 49 82 60 l 82 621 b 63 664 82 642 72 653 b 49 690 54 674 49 681 b 69 708 49 701 58 708 l 260 708 b 313 654 292 708 313 688 l 313 575 b 551 722 367 665 454 722 b 769 511 678 722 769 646 l 769 83 b 789 38 769 60 779 49 b 801 17 796 32 801 25 b 783 0 801 6 794 0 l 524 0 "},"o":{"ha":811,"x_min":0,"x_max":0,"o":"m 407 -14 b 32 354 181 -14 32 132 b 407 722 32 576 181 722 b 781 354 632 722 781 576 b 407 -14 781 132 632 -14 m 260 450 b 438 4 260 269 319 4 b 551 257 504 4 551 93 b 376 704 551 436 492 704 b 260 450 300 704 260 592 "},"p":{"ha":842,"x_min":0,"x_max":0,"o":"m 496 -14 b 313 67 414 -14 354 15 l 313 -167 b 333 -212 313 -190 322 -201 b 346 -233 340 -218 346 -225 b 328 -250 346 -244 339 -250 l 68 -250 b 50 -233 57 -250 50 -244 b 63 -212 50 -225 56 -218 b 82 -167 72 -201 82 -190 l 82 621 b 63 664 82 642 72 653 b 49 690 54 674 49 681 b 69 708 49 701 58 708 l 260 708 b 313 654 292 708 313 688 l 313 592 b 522 722 365 678 439 722 b 808 361 696 722 808 579 b 496 -14 808 135 685 -14 m 313 218 b 464 6 339 106 388 6 b 581 250 540 6 581 117 b 407 625 581 393 525 625 b 313 560 367 625 332 603 l 313 218 "},"q":{"ha":840,"x_min":0,"x_max":0,"o":"m 515 -250 b 499 -233 504 -250 499 -244 b 510 -212 499 -225 504 -218 b 531 -167 521 -201 531 -190 l 531 115 b 321 -14 478 29 404 -14 b 33 344 147 -14 33 128 b 357 722 33 574 158 722 b 599 621 453 722 531 688 b 653 668 619 636 638 653 b 724 715 676 694 697 715 b 761 676 747 715 761 700 l 761 -167 b 781 -212 761 -190 771 -201 b 793 -233 788 -218 793 -225 b 775 -250 793 -244 786 -250 l 515 -250 m 263 460 b 435 83 263 317 317 83 b 531 147 476 83 510 106 l 531 475 b 382 706 504 596 454 706 b 263 460 304 706 263 594 "},"r":{"ha":631,"x_min":0,"x_max":0,"o":"m 68 0 b 50 17 57 0 50 6 b 63 38 50 25 56 32 b 82 83 72 49 82 60 l 82 621 b 63 664 82 642 72 653 b 49 690 54 674 49 681 b 69 708 49 701 58 708 l 260 708 b 313 654 292 708 313 688 l 313 561 b 493 722 349 663 411 722 b 622 601 561 722 622 682 b 510 483 622 533 579 483 b 418 540 464 483 435 507 b 369 585 404 564 390 585 b 313 526 349 585 328 568 l 313 83 b 333 42 313 61 321 50 b 354 17 347 32 354 26 b 336 0 354 6 349 0 l 68 0 "},"s":{"ha":688,"x_min":0,"x_max":0,"o":"m 342 -14 b 31 156 161 -14 31 56 b 117 238 31 206 65 238 b 222 147 176 238 204 194 b 367 3 247 78 276 3 b 483 108 432 3 483 43 b 288 271 483 192 400 229 b 44 511 171 315 44 368 b 350 722 44 643 151 722 b 629 568 533 722 629 653 b 553 496 629 521 599 496 b 454 576 494 496 468 535 b 331 706 429 643 407 706 b 224 607 267 706 224 664 b 421 444 224 524 313 488 b 663 203 535 400 663 344 b 342 -14 663 67 544 -14 "},"t":{"ha":531,"x_min":0,"x_max":0,"o":"m 296 -14 b 96 174 175 -14 96 61 l 96 671 l 29 671 b 18 682 24 671 18 675 b 58 699 18 692 29 694 b 286 861 165 715 251 767 b 314 904 297 892 303 904 b 326 889 322 904 326 897 l 326 708 l 488 708 b 506 690 500 708 506 700 b 488 671 506 678 500 671 l 326 671 l 326 146 b 392 79 326 104 351 79 b 474 114 425 79 456 99 b 497 129 486 125 492 129 b 506 118 503 129 506 125 b 296 -14 506 68 417 -14 "},"u":{"ha":826,"x_min":0,"x_max":0,"o":"m 285 -14 b 74 197 163 -14 74 63 l 74 621 b 54 664 74 642 64 653 b 40 690 46 674 40 681 b 61 708 40 701 49 708 l 250 708 b 304 654 283 708 304 688 l 304 185 b 399 85 304 125 343 85 b 515 157 446 85 488 113 l 515 621 b 496 664 515 642 506 653 b 482 690 488 674 482 681 b 503 708 482 701 492 708 l 693 708 b 746 654 726 708 746 688 l 746 90 b 767 49 746 64 754 56 b 779 32 775 44 779 40 b 676 -14 779 8 739 -14 b 517 125 585 -14 524 35 b 285 -14 463 40 379 -14 "},"v":{"ha":763,"x_min":0,"x_max":0,"o":"m 354 0 b 301 35 329 0 311 11 l 68 601 b 26 663 57 629 44 651 b 6 690 14 671 6 676 b 25 708 6 701 14 708 l 332 708 b 350 690 342 708 350 701 b 328 664 350 679 342 674 b 315 601 310 651 304 632 l 482 142 l 636 579 b 603 667 656 635 635 651 b 579 690 589 674 579 681 b 597 708 579 701 586 708 l 743 708 b 760 690 753 708 760 701 b 736 663 760 678 750 671 b 692 601 721 651 703 631 l 463 35 b 410 0 453 11 435 0 l 354 0 "},"w":{"ha":1093,"x_min":0,"x_max":0,"o":"m 318 0 b 264 35 292 0 272 11 l 69 601 b 29 663 60 629 47 651 b 8 690 17 671 8 676 b 28 708 8 701 17 708 l 333 708 b 351 690 344 708 351 701 b 329 664 351 679 343 674 b 313 601 311 651 303 632 l 443 174 l 590 682 b 628 708 596 699 610 708 l 658 708 b 694 682 678 708 689 700 l 851 172 l 964 579 b 929 667 979 635 961 651 b 906 690 915 674 906 681 b 924 708 906 701 913 708 l 1069 708 b 1086 690 1079 708 1086 701 b 1064 664 1086 678 1078 672 b 1018 601 1046 654 1028 631 l 829 35 b 776 0 821 11 801 0 l 728 0 b 675 35 703 0 683 11 l 547 411 l 418 35 b 365 0 410 11 392 0 l 318 0 "},"x":{"ha":761,"x_min":0,"x_max":0,"o":"m 411 0 b 393 18 400 0 393 7 b 415 44 393 29 401 35 b 421 107 433 57 439 79 l 296 301 l 174 122 b 171 42 144 81 140 56 b 194 18 185 35 194 28 b 176 0 194 7 188 0 l 36 0 b 19 18 25 0 19 7 b 42 44 19 31 28 36 b 114 107 58 54 93 82 l 282 324 l 103 601 b 46 663 86 629 65 651 b 25 690 33 671 25 676 b 44 708 25 701 33 708 l 360 708 b 378 690 371 708 378 701 b 357 664 378 679 369 674 b 349 601 339 651 331 629 l 463 424 l 574 586 b 574 667 601 628 604 653 b 550 690 560 674 550 681 b 569 708 550 701 558 708 l 710 708 b 726 690 719 708 726 701 b 704 664 726 678 718 672 b 632 601 686 654 651 626 l 476 401 l 667 107 b 725 46 685 79 707 57 b 746 18 738 38 746 32 b 726 0 746 7 738 0 l 411 0 "},"y":{"ha":778,"x_min":0,"x_max":0,"o":"m 197 -264 b 6 -135 92 -264 6 -215 b 103 -44 6 -82 42 -44 b 208 -117 158 -44 190 -78 b 289 -201 226 -157 249 -201 b 396 -97 329 -201 364 -160 l 82 603 b 42 663 69 629 58 651 b 21 690 29 671 21 676 b 39 708 21 701 28 708 l 346 708 b 364 690 357 708 364 701 b 342 664 364 679 356 674 b 329 601 324 651 318 632 l 506 167 l 651 579 b 617 667 669 633 649 651 b 593 690 603 674 593 681 b 613 708 593 701 601 708 l 757 708 b 774 690 768 708 774 701 b 751 663 774 679 765 672 b 704 601 733 651 717 631 l 432 -67 b 197 -264 392 -165 346 -264 "},"z":{"ha":713,"x_min":0,"x_max":0,"o":"m 82 0 b 32 43 50 0 32 17 b 43 81 32 54 35 68 l 443 690 l 288 690 b 104 532 188 690 132 608 b 60 461 89 492 78 461 b 42 481 49 461 42 468 l 42 656 b 96 708 42 689 63 708 l 621 708 b 671 665 653 708 671 692 b 660 628 671 654 668 640 l 260 18 l 432 18 b 615 182 532 18 590 104 b 660 257 631 226 642 257 b 678 236 671 257 678 249 l 678 53 b 624 0 678 19 657 0 l 82 0 "},"{":{"ha":831,"x_min":0,"x_max":0,"o":"m 140 274 b 128 272 136 274 132 274 l 128 136 b 140 135 131 135 136 135 b 183 204 176 135 183 161 b 140 274 183 249 176 274 l 140 274 m 351 190 l 296 190 l 296 138 l 361 138 l 361 104 l 256 104 l 256 306 l 361 306 l 361 271 l 296 271 l 296 224 l 351 224 m 138 101 b 88 104 126 101 106 101 l 88 303 b 139 308 106 306 125 308 b 224 204 201 308 224 274 b 138 101 224 133 200 101 l 138 101 m 451 306 l 478 194 l 504 306 l 560 306 b 568 104 563 257 565 169 l 528 104 b 524 249 528 151 526 201 l 496 135 l 458 135 l 431 249 l 429 249 b 426 104 428 201 426 151 l 388 104 b 397 306 389 169 393 257 l 397 306 m 669 101 b 596 204 614 101 596 133 b 669 308 596 275 614 308 b 744 204 725 308 744 275 b 669 101 744 133 725 101 l 669 101 m 669 274 b 636 204 642 274 636 250 b 669 135 636 160 642 135 b 704 204 699 135 704 160 b 669 274 704 250 699 274 m 656 689 b 742 601 728 689 742 631 b 669 529 742 558 699 533 b 439 429 569 518 497 486 b 656 689 439 429 540 689 l 656 689 m 193 617 b 410 357 324 617 410 357 b 193 457 353 429 281 457 b 107 529 150 457 107 486 b 193 617 107 574 136 617 l 193 617 m 436 824 b 410 486 529 733 410 486 b 325 710 419 578 388 650 b 313 822 294 740 283 790 b 436 824 343 853 394 864 l 436 824 "},"|":{"ha":831,"x_min":0,"x_max":0,"o":"m 140 274 b 128 272 136 274 132 274 l 128 136 b 140 135 131 135 136 135 b 183 204 176 135 183 161 b 140 274 183 249 176 274 l 140 274 m 351 190 l 296 190 l 296 138 l 361 138 l 361 104 l 256 104 l 256 306 l 361 306 l 361 271 l 296 271 l 296 224 l 351 224 m 138 101 b 88 104 126 101 106 101 l 88 303 b 139 308 106 306 125 308 b 224 204 201 308 224 274 b 138 101 224 133 200 101 l 138 101 m 451 306 l 478 194 l 504 306 l 560 306 b 568 104 563 257 565 169 l 528 104 b 524 249 528 151 526 201 l 496 135 l 458 135 l 431 249 l 429 249 b 426 104 428 201 426 151 l 388 104 b 397 306 389 169 393 257 l 397 306 m 669 101 b 596 204 614 101 596 133 b 669 308 596 275 614 308 b 744 204 725 308 744 275 b 669 101 744 133 725 101 l 669 101 m 669 274 b 636 204 642 274 636 250 b 669 135 636 160 642 135 b 704 204 699 135 704 160 b 669 274 704 250 699 274 m 656 689 b 742 601 728 689 742 631 b 669 529 742 558 699 533 b 439 429 569 518 497 486 b 656 689 439 429 540 689 l 656 689 m 193 617 b 410 357 324 617 410 357 b 193 457 353 429 281 457 b 107 529 150 457 107 486 b 193 617 107 574 136 617 l 193 617 m 436 824 b 410 486 529 733 410 486 b 325 710 419 578 388 650 b 313 822 294 740 283 790 b 436 824 343 853 394 864 l 436 824 "},"}":{"ha":831,"x_min":0,"x_max":0,"o":"m 140 274 b 128 272 136 274 132 274 l 128 136 b 140 135 131 135 136 135 b 183 204 176 135 183 161 b 140 274 183 249 176 274 l 140 274 m 351 190 l 296 190 l 296 138 l 361 138 l 361 104 l 256 104 l 256 306 l 361 306 l 361 271 l 296 271 l 296 224 l 351 224 m 138 101 b 88 104 126 101 106 101 l 88 303 b 139 308 106 306 125 308 b 224 204 201 308 224 274 b 138 101 224 133 200 101 l 138 101 m 451 306 l 478 194 l 504 306 l 560 306 b 568 104 563 257 565 169 l 528 104 b 524 249 528 151 526 201 l 496 135 l 458 135 l 431 249 l 429 249 b 426 104 428 201 426 151 l 388 104 b 397 306 389 169 393 257 l 397 306 m 669 101 b 596 204 614 101 596 133 b 669 308 596 275 614 308 b 744 204 725 308 744 275 b 669 101 744 133 725 101 l 669 101 m 669 274 b 636 204 642 274 636 250 b 669 135 636 160 642 135 b 704 204 699 135 704 160 b 669 274 704 250 699 274 m 656 689 b 742 601 728 689 742 631 b 669 529 742 558 699 533 b 439 429 569 518 497 486 b 656 689 439 429 540 689 l 656 689 m 193 617 b 410 357 324 617 410 357 b 193 457 353 429 281 457 b 107 529 150 457 107 486 b 193 617 107 574 136 617 l 193 617 m 436 824 b 410 486 529 733 410 486 b 325 710 419 578 388 650 b 313 822 294 740 283 790 b 436 824 343 853 394 864 l 436 824 "},"~":{"ha":831,"x_min":0,"x_max":0,"o":"m 140 274 b 128 272 136 274 132 274 l 128 136 b 140 135 131 135 136 135 b 183 204 176 135 183 161 b 140 274 183 249 176 274 l 140 274 m 351 190 l 296 190 l 296 138 l 361 138 l 361 104 l 256 104 l 256 306 l 361 306 l 361 271 l 296 271 l 296 224 l 351 224 m 138 101 b 88 104 126 101 106 101 l 88 303 b 139 308 106 306 125 308 b 224 204 201 308 224 274 b 138 101 224 133 200 101 l 138 101 m 451 306 l 478 194 l 504 306 l 560 306 b 568 104 563 257 565 169 l 528 104 b 524 249 528 151 526 201 l 496 135 l 458 135 l 431 249 l 429 249 b 426 104 428 201 426 151 l 388 104 b 397 306 389 169 393 257 l 397 306 m 669 101 b 596 204 614 101 596 133 b 669 308 596 275 614 308 b 744 204 725 308 744 275 b 669 101 744 133 725 101 l 669 101 m 669 274 b 636 204 642 274 636 250 b 669 135 636 160 642 135 b 704 204 699 135 704 160 b 669 274 704 250 699 274 m 656 689 b 742 601 728 689 742 631 b 669 529 742 558 699 533 b 439 429 569 518 497 486 b 656 689 439 429 540 689 l 656 689 m 193 617 b 410 357 324 617 410 357 b 193 457 353 429 281 457 b 107 529 150 457 107 486 b 193 617 107 574 136 617 l 193 617 m 436 824 b 410 486 529 733 410 486 b 325 710 419 578 388 650 b 313 822 294 740 283 790 b 436 824 343 853 394 864 l 436 824 "}}}
